<?xml version="1.0" encoding="iso-8859-1"?>
<!-- Generator: Adobe Illustrator 16.0.0, SVG Export Plug-In . SVG Version: 6.00 Build 0)  -->
<!DOCTYPE svg PUBLIC "-//W3C//DTD SVG 1.1//EN" "http://www.w3.org/Graphics/SVG/1.1/DTD/svg11.dtd">
<svg version="1.1" id="Capa_1" xmlns="http://www.w3.org/2000/svg" xmlns:xlink="http://www.w3.org/1999/xlink" x="0px" y="0px"
	 width="72.074px" height="72.074px" viewBox="0 0 72.074 72.074" style="enable-background:new 0 0 72.074 72.074;"
	 xml:space="preserve">
<g>
	<path style="fill:#010002;" d="M48.964,13.748c0,7.604-6.151,13.755-13.732,13.755c-7.604,0-13.776-6.151-13.776-13.755
		C21.455,6.146,27.627,0,35.231,0C42.807,0,48.964,6.146,48.964,13.748z M12.261,72.074h8.409h0.445l0.313-0.638l3.042-2.992
		l-2.819-0.606l-4.456-0.952L12.261,72.074z M69.796,16.3l-2.963,2.957l0.218,0.202l-2.397,2.397
		c0.321,0.29,0.632,0.593,0.901,0.932l2.402-2.408l0.487,0.445l2.92-2.962L69.796,16.3z M50.812,31.561l-1.264,1.25l0.135,0.35
		l0.29,0.684L29.929,53.961l2.141,0.461c1.988,0.414,3.694,1.595,4.803,3.304c0.155,0.248,0.196,0.543,0.323,0.797l0.055-0.052
		l1.476,0.974l0.523-0.124l5.851,4.246l3.926-5.386l-8.699-6.804l0.191-0.564l1.434-0.005l8.555-10.035l0.942-8.984L50.812,31.561z
		 M60.112,22.656c-2.579-0.274-5.126,1.66-5.411,4.357l-0.326,2.934l0,0l-0.218,2.121l-0.952,8.989l-0.078,0.845l-0.554,0.642
		l-7.644,8.974l5.774,4.521l2.07,1.626l-1.206,1.646l0.29,0.606c0.812,1.724,2.563,2.801,4.442,2.801c0.27,0,0.55-0.015,0.818-0.072
		c2.159-0.373,3.832-2.128,4.07-4.308l3.283-30.251C64.763,25.378,62.815,22.954,60.112,22.656z M50.108,61.309l-2.807,3.857
		l-1.605,2.201l-2.206-1.605l-4.825-3.495l-0.445,0.108l-0.177-0.113c0,0.403-0.01,0.817-0.104,1.222
		c-0.088,0.409-0.238,0.782-0.391,1.16c-0.282,0.704-0.696,1.325-1.163,1.89l0.34,0.782c0.339,0.771,0.805,1.775,1.364,2.651
		l1.352,2.103h10.33L50.108,61.309z M30.473,69.531c-0.111,0-0.238-0.03-0.36-0.041c-0.042,0.218-0.085,0.378-0.085,0.378
		l1.163,2.201h2.793l1.815-0.633c-0.611-0.952-1.108-1.988-1.564-3.034C33.093,69.065,31.853,69.531,30.473,69.531z M34.515,59.124
		c-0.207-0.312-0.511-0.549-0.785-0.809c-0.165-0.155-0.303-0.352-0.499-0.481c-0.508-0.347-1.098-0.616-1.728-0.761l-2.148-0.445
		l-4.889-1.047l0,0l-4.336-0.921l-1.675-0.362l-2.762-0.586l-0.197-0.041l0.445-0.436l1.867-1.869l2.009-2.009
		c0.163,1.378,0.238,2.476,0.238,2.496l0.653,0.135l6.061,1.294l1.24-1.242l18.766-18.849l-0.425-1.049l0.14-0.137
		c-2.688-0.808-5.897-1.284-9.932-1.284h-1.325c0,0-1.315,0-1.326,0c-2.837,0-5.706,0.187-8.494,0.812
		c-4.805,1.085-7.78,5.789-11.073,9.031c-3.392,3.34-6.685,6.814-9.989,10.247c-0.728,0.771-1.463,1.543-2.206,2.305
		c-1.274,1.278-1.74,3.147-1.229,4.878c0.497,1.729,1.923,3.034,3.684,3.422l6.496,1.389l2.757,0.584l15.594,3.32
		c0.35,0.066,0.694,0.108,1.036,0.108c2.269,0,4.303-1.585,4.803-3.894c0.187-0.901,0.041-1.762-0.228-2.568l-0.313-0.622
		C34.656,59.548,34.589,59.352,34.515,59.124z M27.617,71.142l-0.469-0.896l0.228-0.983l0.044-0.197l-0.737-0.155l-2.763,3.164
		h4.194L27.617,71.142z"/>
</g>
<g>
</g>
<g>
</g>
<g>
</g>
<g>
</g>
<g>
</g>
<g>
</g>
<g>
</g>
<g>
</g>
<g>
</g>
<g>
</g>
<g>
</g>
<g>
</g>
<g>
</g>
<g>
</g>
<g>
</g>
</svg>
